<?xml version="1.0" encoding="UTF-8" standalone="no"?>
<svg
   xmlns:dc="http://purl.org/dc/elements/1.1/"
   xmlns:cc="http://creativecommons.org/ns#"
   xmlns:rdf="http://www.w3.org/1999/02/22-rdf-syntax-ns#"
   xmlns:svg="http://www.w3.org/2000/svg"
   xmlns="http://www.w3.org/2000/svg"
   xmlns:sodipodi="http://sodipodi.sourceforge.net/DTD/sodipodi-0.dtd"
   xmlns:inkscape="http://www.inkscape.org/namespaces/inkscape"
   version="1.1"
   width="665.6"
   height="665.6"
   viewBox="0 0 1024 1024"
   xml:space="preserve"
   id="svg22"
   sodipodi:docname="cv_download.svg"
   inkscape:export-filename="/home/mat/documents/portfolio/matg-portfolio/public/cv_icon.png"
   inkscape:export-xdpi="9.5779924"
   inkscape:export-ydpi="9.5779924"
   inkscape:version="1.0.2 (e86c870879, 2021-01-15)"><metadata
   id="metadata26"><rdf:RDF><cc:Work
       rdf:about=""><dc:format>image/svg+xml</dc:format><dc:type
         rdf:resource="http://purl.org/dc/dcmitype/StillImage" /></cc:Work></rdf:RDF></metadata><sodipodi:namedview
   pagecolor="#ffffff"
   bordercolor="#666666"
   borderopacity="1"
   objecttolerance="10"
   gridtolerance="10"
   guidetolerance="10"
   inkscape:pageopacity="0"
   inkscape:pageshadow="2"
   inkscape:window-width="1906"
   inkscape:window-height="1026"
   id="namedview24"
   showgrid="false"
   inkscape:zoom="0.9084918"
   inkscape:cx="332.79999"
   inkscape:cy="270.92395"
   inkscape:window-x="1926"
   inkscape:window-y="46"
   inkscape:window-maximized="0"
   inkscape:current-layer="g18" />
<desc
   id="desc2">Created with Fabric.js 3.6.3</desc>
<defs
   id="defs4">
</defs>
<g
   transform="matrix(2.76 0 0 2.76 506.63 511.72)"
   id="g20">
<g
   style=""
   id="g18">
		<g
   transform="matrix(12.77 0 0 12.77 0 0)"
   id="g8"
   style="fill:#bfc9db;fill-opacity:1">
<path
   style="stroke:none;stroke-width:1;stroke-dasharray:none;stroke-linecap:butt;stroke-dashoffset:0;stroke-linejoin:miter;stroke-miterlimit:4;fill:#bfc9db;fill-rule:nonzero;opacity:1;fill-opacity:1"
   transform=" translate(-12, -16)"
   d="M 22 14 V 10 a 0.9092 0.9092 0 0 0 -0.3 -0.7 l -7 -7 A 0.9087 0.9087 0 0 0 14 2 H 4 A 2.0059 2.0059 0 0 0 2 4 V 28 a 2 2 0 0 0 2 2 H 20 V 28 H 4 V 4 h 8 v 6 a 2.0059 2.0059 0 0 0 2 2 h 6 v 2 Z m -8 -4 V 4.4 L 19.6 10 Z"
   stroke-linecap="round"
   id="path6" />
</g>
		<g
   transform="matrix(2.11 0 0 2.11 16.4 58.1)"
   style="fill:#bfc9db;fill-opacity:1"
   id="g16">
		<text
   xml:space="preserve"
   font-family="'Open Sans', sans-serif"
   font-size="84.4563px"
   font-style="normal"
   font-weight="bold"
   style="white-space:pre;opacity:1;fill:#bfc9db;fill-rule:nonzero;stroke:none;stroke-width:0;stroke-linecap:butt;stroke-linejoin:miter;stroke-miterlimit:4;stroke-dashoffset:0;fill-opacity:1"
   id="text14"
   inkscape:export-xdpi="21.678387"
   inkscape:export-ydpi="21.678387"
   y="3.770328"
   x="-2.6171141"
   transform="scale(1.0037589,0.99625517)"><tspan
     x="-47.990841"
     y="30.305128"
     id="tspan10"
     style="stroke-width:0;fill:#bfc9db;fill-opacity:1">C</tspan><tspan
     x="-1.1606733"
     y="30.305128"
     id="tspan12"
     style="stroke-width:0;fill:#bfc9db;fill-opacity:1">V</tspan></text>
</g>
</g>
</g>
</svg>
